<svg version="1.1" id="Layer_1" xmlns="http://www.w3.org/2000/svg" xmlns:xlink="http://www.w3.org/1999/xlink" x="0px" y="0px"
	 width="100%" viewBox="0 0 5396 1972" enable-background="new 0 0 5396 1972" xml:space="preserve">
<path fill="#112B64" opacity="1.000000" stroke="none" 
	d="
M3398.000000,1974.000000 
	C2265.333252,1974.000000 1133.666626,1974.000000 2.000000,1974.000000 
	C2.000000,1316.666626 2.000000,659.333313 2.000000,2.000000 
	C1800.666626,2.000000 3599.333252,2.000000 5398.000000,2.000000 
	C5398.000000,659.333313 5398.000000,1316.666626 5398.000000,1974.000000 
	C4731.666504,1974.000000 4065.333252,1974.000000 3398.000000,1974.000000 
M3583.548340,314.420166 
	C3582.629883,314.818237 3581.725098,315.251343 3580.791260,315.609528 
	C3448.074707,366.522186 3355.155029,496.501099 3355.514404,645.362305 
	C3356.072021,876.359680 3355.681885,1107.359375 3355.634033,1338.358154 
	C3355.628662,1363.778687 3358.201172,1388.865845 3363.570557,1413.722534 
	C3405.992432,1610.109009 3605.390137,1731.703857 3799.182861,1679.295654 
	C3952.809814,1637.749634 4059.808350,1498.136719 4059.830078,1339.079956 
	C4059.861816,1107.414551 4059.850098,875.749207 4059.828125,644.083801 
	C4059.824219,603.064453 4052.901611,563.223389 4038.994629,524.621338 
	C3972.666260,340.513611 3770.028809,246.480423 3583.548340,314.420166 
M1683.280396,1356.310425 
	C1683.410645,1350.647339 1683.654053,1344.984131 1683.654541,1339.321045 
	C1683.673584,1108.007812 1683.669922,876.694580 1683.672974,645.381348 
	C1683.673218,620.985107 1681.245483,596.848022 1676.336548,572.939392 
	C1636.197388,377.446136 1438.497437,249.374374 1236.763184,304.955719 
	C1086.487305,346.359406 978.799622,484.751495 979.234863,646.360901 
	C979.854187,876.339294 979.408630,1106.320557 979.367981,1336.300537 
	C979.363525,1361.371216 981.431213,1386.231567 986.609009,1410.760376 
	C1025.784180,1596.345947 1202.942505,1718.212769 1389.626465,1686.022339 
	C1507.927368,1665.623291 1593.834839,1599.401855 1648.181519,1492.582275 
	C1669.604614,1450.474731 1680.353760,1405.287598 1683.280396,1356.310425 
M4904.883301,582.051941 
	C4931.086426,616.882690 4966.207520,632.686707 5008.914062,625.172363 
	C5083.469238,612.054077 5119.546387,530.525818 5083.174805,467.214050 
	C5009.955566,339.764526 4865.835449,270.054260 4721.074219,296.022064 
	C4597.081055,318.264313 4507.293945,387.214172 4455.143555,502.923706 
	C4439.423340,537.802368 4430.871582,574.632385 4427.526855,612.812256 
	C4424.248047,650.241577 4425.159668,687.323364 4432.974609,724.156433 
	C4445.222656,781.882263 4473.668945,830.701477 4514.296387,872.920532 
	C4582.690918,943.994080 4651.007324,1015.143494 4719.373047,1086.244507 
	C4764.181641,1132.845215 4809.276855,1179.172729 4853.774902,1226.067505 
	C4902.608398,1277.530884 4908.638672,1356.643066 4867.834473,1413.761230 
	C4839.836914,1452.952637 4800.855957,1474.452881 4752.951660,1477.426025 
	C4708.559082,1480.181030 4669.400879,1466.244751 4638.386719,1433.426636 
	C4629.322266,1423.834717 4621.598633,1412.800659 4614.312988,1401.734497 
	C4591.778809,1367.508179 4560.208984,1349.463867 4519.405762,1350.924316 
	C4478.941406,1352.372803 4448.145020,1372.190063 4429.504395,1408.142334 
	C4410.949219,1443.930664 4412.283203,1480.578613 4432.971680,1515.041992 
	C4512.136230,1646.915894 4669.778809,1717.723999 4823.151855,1682.374756 
	C5029.064941,1634.916016 5126.821289,1443.062378 5104.468750,1284.489746 
	C5093.271973,1205.062622 5061.160645,1135.890015 5005.706543,1078.095947 
	C4930.491211,999.708130 4854.542480,922.024536 4778.916016,844.031616 
	C4745.045898,809.101562 4710.703613,774.611816 4677.468262,739.087463 
	C4643.048340,702.297485 4631.683594,658.160461 4643.489746,609.506470 
	C4656.493164,555.913513 4691.167480,521.395935 4744.689941,508.604919 
	C4799.061523,495.611237 4846.239746,510.681549 4884.019531,552.299683 
	C4891.776367,560.845032 4897.439941,571.291443 4904.883301,582.051941 
M2450.089355,598.801392 
	C2410.198242,516.034363 2370.235596,433.301727 2330.446045,350.485901 
	C2310.365479,308.691711 2267.921875,287.423706 2228.080566,290.828156 
	C2180.085449,294.929321 2143.291260,325.998962 2131.336426,370.596436 
	C2127.825439,383.693542 2128.224121,396.963043 2127.885742,410.276672 
	C2127.694092,417.814575 2129.292969,424.506683 2132.582764,431.319580 
	C2281.531494,739.785706 2430.348389,1048.315552 2579.193359,1356.831787 
	C2623.312256,1448.278809 2666.947266,1539.964844 2711.841309,1631.029907 
	C2732.210449,1672.347778 2767.331055,1692.597168 2813.337158,1690.202393 
	C2858.610840,1687.845703 2889.622314,1663.541626 2907.175537,1622.076904 
	C2913.796387,1606.436646 2914.369873,1589.759033 2914.320068,1572.983154 
	C2914.297607,1565.441284 2912.817627,1558.732666 2909.541260,1551.947510 
	C2838.321533,1404.458374 2767.240723,1256.902100 2696.127441,1109.361572 
	C2614.318359,939.630554 2532.503418,769.902283 2450.089355,598.801392 
M303.662384,1226.999878 
	C303.662384,1305.997803 303.657013,1384.995605 303.664734,1463.993530 
	C303.668427,1501.992188 303.082031,1540.003174 303.844788,1577.986816 
	C305.332306,1652.066284 376.716156,1705.455811 448.409729,1686.703857 
	C500.366547,1673.113892 535.650818,1627.523315 535.654663,1573.655273 
	C535.682495,1185.000000 535.674255,796.344788 535.618652,407.689514 
	C535.617920,402.383331 535.228699,397.017578 534.390747,391.780457 
	C526.936462,345.190033 501.208740,312.740967 456.604279,297.747498 
	C412.064392,282.775696 371.530060,292.567047 337.683380,325.344513 
	C313.744110,348.527557 303.539062,377.654938 303.561249,411.023682 
	C303.741455,682.348938 303.662445,953.674377 303.662384,1226.999878 
M2328.035156,1632.902222 
	C2336.177002,1616.823364 2339.662842,1599.669922 2339.664551,1581.755737 
	C2339.681641,1393.443115 2339.695557,1205.130371 2339.554932,1016.817810 
	C2339.551514,1012.350525 2338.580566,1007.482300 2336.655518,1003.476379 
	C2268.313477,861.255249 2199.805908,719.113464 2131.283203,576.979187 
	C2130.408936,575.165710 2129.040527,573.590698 2126.586182,569.953369 
	C2126.586182,575.383118 2126.586426,578.300110 2126.586426,581.217163 
	C2126.586426,914.847168 2126.581299,1248.477173 2126.628906,1582.107178 
	C2126.629639,1587.419434 2127.055908,1592.755127 2127.639404,1598.040527 
	C2133.948975,1655.206299 2188.820557,1701.755737 2253.818604,1689.144165 
	C2286.797363,1682.745239 2311.183838,1663.691040 2328.035156,1632.902222 
M2905.520996,1393.418823 
	C2908.382812,1399.212280 2911.244873,1405.005737 2914.106689,1410.799194 
	C2914.739746,1410.652588 2915.372559,1410.505981 2916.005371,1410.359497 
	C2916.005371,1406.860840 2916.005371,1403.362305 2916.005371,1399.863770 
	C2916.005615,1267.561890 2916.005615,1135.259888 2916.005615,1002.957947 
	C2916.005615,803.338623 2916.053955,603.719238 2915.871094,404.100098 
	C2915.861328,393.530121 2915.129639,382.662079 2912.639648,372.443146 
	C2899.660645,319.179535 2849.697998,284.998260 2795.222168,292.377502 
	C2737.166504,300.241608 2703.096924,350.471619 2703.208496,397.824677 
	C2703.654541,587.112061 2703.408936,776.401062 2703.319092,965.689453 
	C2703.316406,971.529236 2704.587646,976.685242 2707.121826,981.937378 
	C2773.080566,1118.630371 2838.925537,1255.378296 2905.520996,1393.418823 
z"/>
<path fill="#FEFEFF" opacity="1.000000" stroke="none" 
	d="
M3584.295410,314.187195 
	C3770.028809,246.480423 3972.666260,340.513611 4038.994629,524.621338 
	C4052.901611,563.223389 4059.824219,603.064453 4059.828125,644.083801 
	C4059.850098,875.749207 4059.861816,1107.414551 4059.830078,1339.079956 
	C4059.808350,1498.136719 3952.809814,1637.749634 3799.182861,1679.295654 
	C3605.390137,1731.703857 3405.992432,1610.109009 3363.570557,1413.722534 
	C3358.201172,1388.865845 3355.628662,1363.778687 3355.634033,1338.358154 
	C3355.681885,1107.359375 3356.072021,876.359680 3355.514404,645.362305 
	C3355.155029,496.501099 3448.074707,366.522186 3580.791260,315.609528 
	C3581.725098,315.251343 3582.629883,314.818237 3584.295410,314.187195 
M3568.169189,1241.000000 
	C3568.169189,1272.658325 3568.076172,1304.317017 3568.237061,1335.974487 
	C3568.276123,1343.611938 3568.798828,1351.287842 3569.706543,1358.873535 
	C3577.824707,1426.710083 3640.804688,1488.375000 3725.670410,1477.199341 
	C3796.538574,1467.867065 3846.865723,1409.484863 3846.922119,1338.055786 
	C3847.104736,1106.780884 3847.067871,875.505554 3846.776855,644.230835 
	C3846.761230,631.725830 3845.325928,618.716736 3841.702393,606.809143 
	C3825.424316,553.317566 3789.789062,518.385986 3735.122559,506.872375 
	C3681.031738,495.480072 3635.089111,513.223206 3599.485596,555.536560 
	C3577.382080,581.805115 3568.118164,612.945190 3568.131592,647.149048 
	C3568.209229,844.432678 3568.169189,1041.716309 3568.169189,1241.000000 
z"/>
<path fill="#FEFEFF" opacity="1.000000" stroke="none" 
	d="
M1683.192139,1357.242188 
	C1680.353760,1405.287598 1669.604614,1450.474731 1648.181519,1492.582275 
	C1593.834839,1599.401855 1507.927368,1665.623291 1389.626465,1686.022339 
	C1202.942505,1718.212769 1025.784180,1596.345947 986.609009,1410.760376 
	C981.431213,1386.231567 979.363525,1361.371216 979.367981,1336.300537 
	C979.408630,1106.320557 979.854187,876.339294 979.234863,646.360901 
	C978.799622,484.751495 1086.487305,346.359406 1236.763184,304.955719 
	C1438.497437,249.374374 1636.197388,377.446136 1676.336548,572.939392 
	C1681.245483,596.848022 1683.673218,620.985107 1683.672974,645.381348 
	C1683.669922,876.694580 1683.673584,1108.007812 1683.654541,1339.321045 
	C1683.654053,1344.984131 1683.410645,1350.647339 1683.192139,1357.242188 
M1192.005493,1157.000000 
	C1192.005737,1215.661011 1191.936890,1274.322266 1192.078979,1332.983032 
	C1192.100708,1341.949707 1192.530884,1350.991211 1193.735229,1359.867432 
	C1202.938354,1427.700928 1261.751587,1479.237549 1330.146118,1479.666748 
	C1407.618042,1480.152954 1470.500122,1418.145020 1470.544678,1340.607056 
	C1470.678345,1108.628418 1470.622925,876.649658 1470.483276,644.671021 
	C1470.477661,635.402161 1469.584473,625.998718 1467.878174,616.887695 
	C1456.682617,557.109131 1403.806152,509.427246 1343.363281,504.194214 
	C1284.163818,499.068848 1228.179321,532.256531 1204.015503,586.785522 
	C1195.084229,606.940247 1191.921387,628.101135 1191.937622,650.046448 
	C1192.062378,818.364197 1192.005737,986.682129 1192.005493,1157.000000 
z"/>
<path fill="#FEFEFF" opacity="1.000000" stroke="none" 
	d="
M4904.475586,581.456665 
	C4897.439941,571.291443 4891.776367,560.845032 4884.019531,552.299683 
	C4846.239746,510.681549 4799.061523,495.611237 4744.689941,508.604919 
	C4691.167480,521.395935 4656.493164,555.913513 4643.489746,609.506470 
	C4631.683594,658.160461 4643.048340,702.297485 4677.468262,739.087463 
	C4710.703613,774.611816 4745.045898,809.101562 4778.916016,844.031616 
	C4854.542480,922.024536 4930.491211,999.708130 5005.706543,1078.095947 
	C5061.160645,1135.890015 5093.271973,1205.062622 5104.468750,1284.489746 
	C5126.821289,1443.062378 5029.064941,1634.916016 4823.151855,1682.374756 
	C4669.778809,1717.723999 4512.136230,1646.915894 4432.971680,1515.041992 
	C4412.283203,1480.578613 4410.949219,1443.930664 4429.504395,1408.142334 
	C4448.145020,1372.190063 4478.941406,1352.372803 4519.405762,1350.924316 
	C4560.208984,1349.463867 4591.778809,1367.508179 4614.312988,1401.734497 
	C4621.598633,1412.800659 4629.322266,1423.834717 4638.386719,1433.426636 
	C4669.400879,1466.244751 4708.559082,1480.181030 4752.951660,1477.426025 
	C4800.855957,1474.452881 4839.836914,1452.952637 4867.834473,1413.761230 
	C4908.638672,1356.643066 4902.608398,1277.530884 4853.774902,1226.067505 
	C4809.276855,1179.172729 4764.181641,1132.845215 4719.373047,1086.244507 
	C4651.007324,1015.143494 4582.690918,943.994080 4514.296387,872.920532 
	C4473.668945,830.701477 4445.222656,781.882263 4432.974609,724.156433 
	C4425.159668,687.323364 4424.248047,650.241577 4427.526855,612.812256 
	C4430.871582,574.632385 4439.423340,537.802368 4455.143555,502.923706 
	C4507.293945,387.214172 4597.081055,318.264313 4721.074219,296.022064 
	C4865.835449,270.054260 5009.955566,339.764526 5083.174805,467.214050 
	C5119.546387,530.525818 5083.469238,612.054077 5008.914062,625.172363 
	C4966.207520,632.686707 4931.086426,616.882690 4904.475586,581.456665 
z"/>
<path fill="#FEFEFF" opacity="1.000000" stroke="none" 
	d="
M2450.390137,599.487061 
	C2532.503418,769.902283 2614.318359,939.630554 2696.127441,1109.361572 
	C2767.240723,1256.902100 2838.321533,1404.458374 2909.541260,1551.947510 
	C2912.817627,1558.732666 2914.297607,1565.441284 2914.320068,1572.983154 
	C2914.369873,1589.759033 2913.796387,1606.436646 2907.175537,1622.076904 
	C2889.622314,1663.541626 2858.610840,1687.845703 2813.337158,1690.202393 
	C2767.331055,1692.597168 2732.210449,1672.347778 2711.841309,1631.029907 
	C2666.947266,1539.964844 2623.312256,1448.278809 2579.193359,1356.831787 
	C2430.348389,1048.315552 2281.531494,739.785706 2132.582764,431.319580 
	C2129.292969,424.506683 2127.694092,417.814575 2127.885742,410.276672 
	C2128.224121,396.963043 2127.825439,383.693542 2131.336426,370.596436 
	C2143.291260,325.998962 2180.085449,294.929321 2228.080566,290.828156 
	C2267.921875,287.423706 2310.365479,308.691711 2330.446045,350.485901 
	C2370.235596,433.301727 2410.198242,516.034363 2450.390137,599.487061 
z"/>
<path fill="#FEFEFF" opacity="1.000000" stroke="none" 
	d="
M303.662384,1225.999756 
	C303.662445,953.674377 303.741455,682.348938 303.561249,411.023682 
	C303.539062,377.654938 313.744110,348.527557 337.683380,325.344513 
	C371.530060,292.567047 412.064392,282.775696 456.604279,297.747498 
	C501.208740,312.740967 526.936462,345.190033 534.390747,391.780457 
	C535.228699,397.017578 535.617920,402.383331 535.618652,407.689514 
	C535.674255,796.344788 535.682495,1185.000000 535.654663,1573.655273 
	C535.650818,1627.523315 500.366547,1673.113892 448.409729,1686.703857 
	C376.716156,1705.455811 305.332306,1652.066284 303.844788,1577.986816 
	C303.082031,1540.003174 303.668427,1501.992188 303.664734,1463.993530 
	C303.657013,1384.995605 303.662384,1305.997803 303.662384,1225.999756 
z"/>
<path fill="#FDFEFE" opacity="1.000000" stroke="none" 
	d="
M2327.714355,1633.573486 
	C2311.183838,1663.691040 2286.797363,1682.745239 2253.818604,1689.144165 
	C2188.820557,1701.755737 2133.948975,1655.206299 2127.639404,1598.040527 
	C2127.055908,1592.755127 2126.629639,1587.419434 2126.628906,1582.107178 
	C2126.581299,1248.477173 2126.586426,914.847168 2126.586426,581.217163 
	C2126.586426,578.300110 2126.586182,575.383118 2126.586182,569.953369 
	C2129.040527,573.590698 2130.408936,575.165710 2131.283203,576.979187 
	C2199.805908,719.113464 2268.313477,861.255249 2336.655518,1003.476379 
	C2338.580566,1007.482300 2339.551514,1012.350525 2339.554932,1016.817810 
	C2339.695557,1205.130371 2339.681641,1393.443115 2339.664551,1581.755737 
	C2339.662842,1599.669922 2336.177002,1616.823364 2327.714355,1633.573486 
z"/>
<path fill="#FEFEFF" opacity="1.000000" stroke="none" 
	d="
M2905.155762,1392.767822 
	C2838.925537,1255.378296 2773.080566,1118.630371 2707.121826,981.937378 
	C2704.587646,976.685242 2703.316406,971.529236 2703.319092,965.689453 
	C2703.408936,776.401062 2703.654541,587.112061 2703.208496,397.824677 
	C2703.096924,350.471619 2737.166504,300.241608 2795.222168,292.377502 
	C2849.697998,284.998260 2899.660645,319.179535 2912.639648,372.443146 
	C2915.129639,382.662079 2915.861328,393.530121 2915.871094,404.100098 
	C2916.053955,603.719238 2916.005615,803.338623 2916.005615,1002.957947 
	C2916.005615,1135.259888 2916.005615,1267.561890 2916.005371,1399.863770 
	C2916.005371,1403.362305 2916.005371,1406.860840 2916.005371,1410.359497 
	C2915.372559,1410.505981 2914.739746,1410.652588 2914.106689,1410.799194 
	C2911.244873,1405.005737 2908.382812,1399.212280 2905.155762,1392.767822 
z"/>
<path fill="#112B64" opacity="1.000000" stroke="none" 
	d="
M3568.169189,1240.000000 
	C3568.169189,1041.716309 3568.209229,844.432678 3568.131592,647.149048 
	C3568.118164,612.945190 3577.382080,581.805115 3599.485596,555.536560 
	C3635.089111,513.223206 3681.031738,495.480072 3735.122559,506.872375 
	C3789.789062,518.385986 3825.424316,553.317566 3841.702393,606.809143 
	C3845.325928,618.716736 3846.761230,631.725830 3846.776855,644.230835 
	C3847.067871,875.505554 3847.104736,1106.780884 3846.922119,1338.055786 
	C3846.865723,1409.484863 3796.538574,1467.867065 3725.670410,1477.199341 
	C3640.804688,1488.375000 3577.824707,1426.710083 3569.706543,1358.873535 
	C3568.798828,1351.287842 3568.276123,1343.611938 3568.237061,1335.974487 
	C3568.076172,1304.317017 3568.169189,1272.658325 3568.169189,1240.000000 
z"/>
<path fill="#112B64" opacity="1.000000" stroke="none" 
	d="
M1192.005493,1156.000000 
	C1192.005737,986.682129 1192.062378,818.364197 1191.937622,650.046448 
	C1191.921387,628.101135 1195.084229,606.940247 1204.015503,586.785522 
	C1228.179321,532.256531 1284.163818,499.068848 1343.363281,504.194214 
	C1403.806152,509.427246 1456.682617,557.109131 1467.878174,616.887695 
	C1469.584473,625.998718 1470.477661,635.402161 1470.483276,644.671021 
	C1470.622925,876.649658 1470.678345,1108.628418 1470.544678,1340.607056 
	C1470.500122,1418.145020 1407.618042,1480.152954 1330.146118,1479.666748 
	C1261.751587,1479.237549 1202.938354,1427.700928 1193.735229,1359.867432 
	C1192.530884,1350.991211 1192.100708,1341.949707 1192.078979,1332.983032 
	C1191.936890,1274.322266 1192.005737,1215.661011 1192.005493,1156.000000 
z"/>
</svg>